<svg width="1200" height="800" viewBox="0 0 1200 800" fill="none" xmlns="http://www.w3.org/2000/svg">
<rect width="1200" height="800" fill="#F4F5F7"/>
<circle cx="1020" cy="140" r="250" fill="#1D1D1F" fill-opacity="0.16"/>
<circle cx="180" cy="700" r="220" fill="#6E6E73" fill-opacity="0.18"/>
<rect x="240" y="180" width="720" height="440" rx="40" fill="white" fill-opacity="0.88"/>
<path d="M600 290C496 290 412 374 412 478C412 561 465 632 538 657C547 659 551 653 551 648C551 644 551 631 551 614C497 626 485 591 485 591C476 567 463 561 463 561C444 548 464 548 464 548C485 550 496 570 496 570C514 600 543 591 554 585C556 571 561 561 567 556C524 551 479 535 479 463C479 443 486 427 498 415C496 410 489 389 500 362C500 362 517 357 551 380C567 375 584 372 600 372C616 372 633 375 649 380C683 357 700 362 700 362C711 389 704 410 702 415C714 427 721 443 721 463C721 535 676 551 633 556C641 563 647 578 647 601C647 634 647 641 647 648C647 653 651 660 660 657C733 632 788 561 788 478C788 374 704 290 600 290Z" fill="#1D1D1F"/>
<text x="600" y="690" text-anchor="middle" fill="#2C2C2E" font-family="Arial, Helvetica, sans-serif" font-size="56" font-weight="700">GITHUB</text>
</svg>
