<svg width="1200" height="800" viewBox="0 0 1200 800" fill="none" xmlns="http://www.w3.org/2000/svg">
<rect width="1200" height="800" fill="#EDF4FF"/>
<circle cx="1060" cy="160" r="260" fill="#0A66C2" fill-opacity="0.24"/>
<circle cx="120" cy="680" r="200" fill="#0071E3" fill-opacity="0.18"/>
<rect x="260" y="170" width="680" height="460" rx="44" fill="white" fill-opacity="0.85"/>
<rect x="360" y="300" width="96" height="220" rx="18" fill="#0A66C2"/>
<rect x="360" y="230" width="96" height="56" rx="18" fill="#0A66C2"/>
<path d="M540 518V306H626V337C651 305 686 291 731 291C820 291 868 347 868 438V518H776V451C776 401 759 370 714 370C670 370 632 400 632 455V518H540Z" fill="#0A66C2"/>
<text x="600" y="610" text-anchor="middle" fill="#084A8C" font-family="Arial, Helvetica, sans-serif" font-size="56" font-weight="700">LINKEDIN</text>
</svg>
